<svg width="20" height="17" viewBox="0 0 20 17" fill="none" xmlns="http://www.w3.org/2000/svg">
<path d="M9.99035 16.7099C9.77625 16.7099 9.56119 16.6715 9.34518 16.5945C9.12914 16.5176 8.93908 16.3971 8.77498 16.233L7.33848 14.9273C5.56539 13.3106 3.98238 11.7225 2.58943 10.1628C1.19648 8.60322 0.5 6.9324 0.5 5.15037C0.5 3.73115 0.978525 2.54302 1.93558 1.58597C2.89263 0.628916 4.08076 0.150391 5.49998 0.150391C6.30638 0.150391 7.10285 0.336292 7.8894 0.708092C8.67593 1.07989 9.37946 1.68374 9.99998 2.51964C10.6205 1.68374 11.324 1.07989 12.1106 0.708092C12.8971 0.336292 13.6936 0.150391 14.5 0.150391C15.9192 0.150391 17.1073 0.628916 18.0644 1.58597C19.0214 2.54302 19.5 3.73115 19.5 5.15037C19.5 6.95163 18.7916 8.64105 17.375 10.2186C15.9583 11.7962 14.3788 13.3709 12.6365 14.9426L11.2154 16.233C11.0513 16.3971 10.8596 16.5176 10.6404 16.5945C10.4211 16.6715 10.2045 16.7099 9.99035 16.7099Z" fill="#AC271E"/>
</svg>
