<svg width="9" height="17" viewBox="0 0 9 17" fill="none" xmlns="http://www.w3.org/2000/svg">
<path d="M8.9999 14.2422L4.6376 16.8408C4.44497 16.962 4.24323 17.0143 4.0331 16.9971C3.82303 16.9798 3.63895 16.9102 3.48135 16.7891C3.32367 16.6678 3.20078 16.5159 3.11318 16.334C3.02562 16.1521 3.00798 15.9487 3.06045 15.7236L4.2167 10.8115L0.353417 7.51074C0.17828 7.35483 0.0690829 7.17675 0.0252917 6.97754C-0.0183773 6.77854 -0.00558478 6.58392 0.0643542 6.39355C0.134403 6.20306 0.239717 6.04704 0.379784 5.92578C0.51993 5.80451 0.712665 5.72606 0.957909 5.69141L6.05654 5.25L8.02724 0.624023C8.11479 0.416248 8.25069 0.260206 8.43447 0.15625C8.61843 0.0522943 8.80718 0 8.9999 0V14.2422Z" fill="#AC271E"/>
</svg>
