<svg width="22" height="16" viewBox="0 0 22 16" fill="none" xmlns="http://www.w3.org/2000/svg">
<path d="M0.593479 0.972005C0.317342 0.973692 0.094856 1.19891 0.0965436 1.47505C0.0982312 1.75119 0.323452 1.97367 0.59959 1.97199L0.593479 0.972005ZM0.596534 1.472C0.59959 1.97199 0.599446 1.97199 0.599366 1.97199C0.599425 1.97199 0.599408 1.97199 0.599524 1.97199C0.599755 1.97199 0.60024 1.97198 0.600975 1.97198C0.602445 1.97198 0.60492 1.97197 0.608385 1.97198C0.615314 1.97198 0.626201 1.97201 0.640933 1.97212C0.670396 1.97234 0.715228 1.97289 0.774512 1.97419C0.89309 1.97679 1.06942 1.98243 1.29616 1.99459C1.74977 2.01891 2.40448 2.06928 3.20178 2.17347C4.79801 2.38207 6.957 2.80526 9.21477 3.6618C13.727 5.37363 18.5903 8.79404 20.216 15.6727L20.7026 15.5577L21.1892 15.4427C19.4617 8.13327 14.272 4.51083 9.56948 2.72683C7.21988 1.83545 4.98108 1.39749 3.33136 1.1819C2.50567 1.074 1.82537 1.02153 1.3497 0.996025C1.11181 0.98327 0.924942 0.977253 0.796479 0.97443C0.732242 0.973019 0.682594 0.972406 0.648457 0.972149C0.631388 0.97202 0.618195 0.971981 0.608994 0.971976C0.604394 0.971972 0.600791 0.971978 0.5982 0.971986C0.596905 0.971989 0.595862 0.971993 0.595075 0.971996C0.594681 0.971998 0.594282 0.972 0.594085 0.972001C0.59375 0.972003 0.593479 0.972005 0.596534 1.472Z" fill="#AC271E"/>
</svg>
