<svg width="31" height="32" viewBox="0 0 31 32" fill="none" xmlns="http://www.w3.org/2000/svg">
<ellipse cx="15.6154" cy="3.61766" rx="11.7795" ry="2.61766" stroke="#AC271E"/>
<ellipse cx="15.6154" cy="3.3988" rx="8.28926" ry="1.09069" stroke="#AC271E"/>
<path d="M3.39974 3.3999C3.39974 3.3999 1.17183 10.7677 1.2185 15.7277C1.26277 20.4331 3.39974 27.6133 3.39974 27.6133" stroke="#AC271E"/>
<path d="M11.6892 6.67188C11.6892 6.67188 10.3344 13.6034 10.3811 18.5634C10.4253 23.2688 11.9073 30.449 11.9073 30.449" stroke="#AC271E"/>
<path d="M19.3235 6.67188C19.3235 6.67188 20.6783 13.6034 20.6316 18.5634C20.5874 23.2688 19.1054 30.449 19.1054 30.449" stroke="#AC271E"/>
<path d="M6.01791 5.3623C6.01791 5.3623 3.78999 12.7301 3.83666 17.6901C3.88093 22.3955 6.01791 29.5757 6.01791 29.5757" stroke="#AC271E"/>
<path d="M27.8307 3.61768C27.8307 3.61768 30.0586 10.9854 30.012 15.9454C29.9677 20.6509 27.8307 27.831 27.8307 27.831" stroke="#AC271E"/>
<path d="M25.2131 5.3623C25.2131 5.3623 27.441 12.7301 27.3943 17.6901C27.35 22.3955 25.2131 29.5757 25.2131 29.5757" stroke="#AC271E"/>
<path d="M29.7843 8.41699C19.6094 12.109 6.79649 10.1035 1.21814 8.63513L1 10.5984C13.1385 14.2904 25.3216 11.8433 30.2305 10.3049L29.7843 8.41699Z" fill="#AC271E" stroke="#AC271E" stroke-linejoin="round"/>
<path d="M30.2305 21.0693C20.0556 24.7613 6.57835 22.7559 1 21.2875L1.43628 23.4689C13.5748 27.1609 24.8853 24.789 29.7943 23.2507L30.2305 21.0693Z" fill="#AC271E" stroke="#AC271E" stroke-linejoin="round"/>
<path d="M3.39918 27.396C3.39918 27.396 3.18108 30.8862 15.3968 30.8862C27.6126 30.8862 27.8307 27.6141 27.8307 27.6141" stroke="#AC271E" stroke-linejoin="round"/>
</svg>
