<svg width="54" height="54" viewBox="0 0 54 54" fill="none" xmlns="http://www.w3.org/2000/svg">
<g clip-path="url(#clip0_13617_8367)">
<path d="M41.4226 53.754L37.3979 51.3829V38.8631C37.3979 38.4129 37.0328 38.0479 36.5826 38.0479C36.1323 38.0479 35.7673 38.4129 35.7673 38.8631V51.3829L31.7426 53.754C31.6265 53.8225 31.675 54.0005 31.8098 54.0005H41.3553C41.4902 54.0005 41.5387 53.8225 41.4226 53.754Z" fill="#F6F4F2"/>
<path d="M19.6617 14.748V0.752625C19.6617 0.336973 19.3247 0 18.9091 0H14.8718C14.4562 0 14.1192 0.336973 14.1192 0.752625V14.748C14.1192 15.5326 13.858 16.2948 13.3766 16.9144L11.5801 19.2272C10.448 20.6844 9.8335 22.4773 9.8335 24.3226V52.4584C9.8335 53.3098 10.5237 54 11.3751 54H22.4058C23.2572 54 23.9474 53.3098 23.9474 52.4584V24.3226C23.9474 22.4772 23.3329 20.6844 22.2009 19.2272L20.4043 16.9144C19.923 16.2948 19.6617 15.5326 19.6617 14.748Z" fill="#AC271E"/>
<path d="M42.3864 23.3887H30.7799C30.7799 23.3887 28.0685 30.0868 29.3369 34.3679C30.3933 37.9332 33.5343 39.4604 35.3147 40.0543C36.138 40.329 37.0282 40.329 37.8514 40.0543C39.6318 39.4604 42.7729 37.9332 43.8292 34.3679C45.0979 30.0868 42.3864 23.3887 42.3864 23.3887Z" fill="#F6F4F2"/>
<path d="M29.0525 30.499C28.9407 31.8452 28.9899 33.1972 29.3369 34.3684C30.3932 37.9337 33.5343 39.4609 35.3147 40.0548C36.138 40.3294 37.0281 40.3294 37.8514 40.0548C39.6318 39.4609 42.7728 37.9337 43.8292 34.3684C44.1762 33.1972 44.2254 31.8452 44.1136 30.499H29.0525Z" fill="#AC271E"/>
<path d="M23.9464 40.7596H16.4643C15.7208 40.7596 15.1182 40.1569 15.1182 39.4135V29.8754C15.1182 29.1319 15.7208 28.5293 16.4643 28.5293H23.9464V40.7596Z" fill="#9170EE"/>
<path d="M18.9085 0H14.8713C14.4556 0 14.1187 0.336973 14.1187 0.752625V13.0744H19.6612C19.6612 13.0744 19.6612 3.53426 19.6612 0.752625C19.6611 0.336973 19.3242 0 18.9085 0Z" fill="#5732BF"/>
<path d="M19.8019 5.12746H13.9772C13.8073 5.12746 13.6694 4.98971 13.6694 4.8197V2.72182C13.6694 2.55191 13.8072 2.41406 13.9772 2.41406H19.8019C19.9718 2.41406 20.1097 2.5518 20.1097 2.72182V4.8197C20.1096 4.98971 19.9718 5.12746 19.8019 5.12746Z" fill="#5732BF"/>
</g>
<defs>
<clipPath id="clip0_13617_8367">
<rect width="54" height="54" fill="white"/>
</clipPath>
</defs>
</svg>
