<svg width="9" height="17" viewBox="0 0 9 17" fill="none" xmlns="http://www.w3.org/2000/svg">
<path d="M0.143555 0.00976562C0.286509 0.0292427 0.427406 0.0782541 0.56543 0.15625C0.749168 0.260206 0.885125 0.416278 0.972656 0.624023L2.94336 5.25L8.04199 5.69141C8.28719 5.72607 8.47999 5.80453 8.62012 5.92578C8.76015 6.04703 8.86551 6.20308 8.93555 6.39355C9.00547 6.5839 9.01827 6.77856 8.97461 6.97754C8.93082 7.17672 8.82159 7.35485 8.64648 7.51074L4.7832 10.8115L5.93945 15.7236C5.99191 15.9487 5.97427 16.1522 5.88672 16.334C5.79912 16.5159 5.67624 16.6678 5.51855 16.7891C5.36094 16.9102 5.1769 16.9798 4.9668 16.9971C4.75663 17.0143 4.55496 16.9621 4.3623 16.8408L0 14.2422V0L0.143555 0.00976562Z" fill="#AC271E"/>
</svg>
