<svg width="24" height="25" viewBox="0 0 24 25" fill="none" xmlns="http://www.w3.org/2000/svg"><path d="M11.893 1.964c2.057 0 3.96.4 5.708 1.2 1.748.8 3.13 1.887 4.146 3.263s1.524 2.876 1.524 4.501c0 1.626-.508 3.128-1.524 4.508s-2.396 2.47-4.14 3.27c-1.743.8-3.648 1.2-5.714 1.2-.652 0-1.325-.046-2.019-.14-3.014 2.091-4.618 3.15-4.812 3.175a.324.324 0 0 1-.267-.013.23.23 0 0 1-.076-.101.312.312 0 0 1-.026-.115v-.05c.051-.33.436-1.706 1.156-4.127-1.634-.813-2.931-1.89-3.892-3.232-.961-1.342-1.441-2.8-1.441-4.375 0-1.625.508-3.125 1.523-4.501C3.055 5.05 4.437 3.963 6.185 3.163c1.749-.8 3.651-1.2 5.708-1.2ZM6.128 13.303V9.405h1.003a.78.78 0 0 0 .426-.146.455.455 0 0 0 .222-.4.535.535 0 0 0-.203-.426c-.136-.114-.267-.171-.394-.171H3.881a.72.72 0 0 0-.407.127c-.127.084-.19.224-.19.419 0 .195.068.343.203.444a.743.743 0 0 0 .457.153h1.003v3.898c0 .212.051.385.153.52a.508.508 0 0 0 .431.204.505.505 0 0 0 .438-.229.85.85 0 0 0 .16-.495Zm5.498.724c.314-.119.411-.42.293-.902-.034-.11-.273-.768-.718-1.974a157.24 157.24 0 0 0-.768-2.064c-.229-.55-.542-.825-.94-.825-.431 0-.766.275-1.003.825-.068.144-.326.845-.775 2.102a123.185 123.185 0 0 1-.698 1.936c-.06.076-.074.216-.044.42.03.203.12.342.273.418a.63.63 0 0 0 .495.026c.16-.06.27-.149.33-.267l.305-.838h2.21c.092.305.16.504.203.597.042.084.088.17.14.254.05.084.143.167.278.247.136.08.276.096.42.045Zm3.416 0a.806.806 0 0 0 .49-.165.525.525 0 0 0 .222-.445.525.525 0 0 0-.204-.438.8.8 0 0 0-.508-.159h-1.41V8.986a.85.85 0 0 0-.158-.496.505.505 0 0 0-.438-.228.508.508 0 0 0-.432.203.844.844 0 0 0-.152.52v4.318c0 .212.05.385.152.52a.508.508 0 0 0 .477.197.262.262 0 0 1 .044-.006c.008 0 .023.002.044.007a.268.268 0 0 0 .045.006h1.828Zm5.003-.09a.621.621 0 0 0 .216-.463.714.714 0 0 0-.165-.463c-.05-.076-.584-.792-1.6-2.146.491-.5.987-.999 1.486-1.498a.82.82 0 0 0 .235-.451.584.584 0 0 0-.146-.49c-.144-.135-.299-.19-.464-.164a.835.835 0 0 0-.463.254 272.017 272.017 0 0 1-1.086 1.105c-.309.313-.582.592-.819.838V8.986a.851.851 0 0 0-.159-.496.505.505 0 0 0-.438-.228.508.508 0 0 0-.431.203.844.844 0 0 0-.153.52v4.318c0 .212.051.385.153.52a.508.508 0 0 0 .431.204.505.505 0 0 0 .438-.229.851.851 0 0 0 .16-.495v-1.155l.19-.197a16 16 0 0 1 .228-.235c.559.762 1.058 1.435 1.499 2.019a.8.8 0 0 0 .412.31c.157.047.316.011.476-.107ZM8.72 11.742l.774-2.273.762 2.273H8.72Z" fill="#000"/></svg>