<svg width="36" height="36" viewBox="0 0 36 36" fill="none" xmlns="http://www.w3.org/2000/svg">
<path d="M24.2625 19.5002H7.5C7.075 19.5002 6.71875 19.3564 6.43125 19.0689C6.14375 18.7814 6 18.4252 6 18.0002C6 17.5752 6.14375 17.2189 6.43125 16.9314C6.71875 16.6439 7.075 16.5002 7.5 16.5002H24.2625L16.9125 9.15016C16.6125 8.85016 16.4687 8.50016 16.4812 8.10016C16.4937 7.70016 16.65 7.35016 16.95 7.05016C17.25 6.77516 17.6 6.63141 18 6.61891C18.4 6.60641 18.75 6.75016 19.05 7.05016L28.95 16.9502C29.1 17.1002 29.2062 17.2627 29.2687 17.4377C29.3312 17.6127 29.3625 17.8002 29.3625 18.0002C29.3625 18.2002 29.3312 18.3877 29.2687 18.5627C29.2062 18.7377 29.1 18.9002 28.95 19.0502L19.05 28.9502C18.775 29.2252 18.4312 29.3627 18.0187 29.3627C17.6062 29.3627 17.25 29.2252 16.95 28.9502C16.65 28.6502 16.5 28.2939 16.5 27.8814C16.5 27.4689 16.65 27.1127 16.95 26.8127L24.2625 19.5002Z" fill="#AC271E"/>
</svg>
