<svg width="36" height="36" viewBox="0 0 36 36" fill="none" xmlns="http://www.w3.org/2000/svg">
<ellipse cx="18.0003" cy="9" rx="2.32258" ry="9" fill="#AC271E"/>
<ellipse cx="18.0003" cy="27" rx="2.32258" ry="9" fill="#AC271E"/>
<ellipse cx="22.5007" cy="10.2036" rx="2.32258" ry="9" transform="rotate(30 22.5007 10.2036)" fill="#AC271E"/>
<ellipse cx="13.5016" cy="25.7924" rx="2.32258" ry="9" transform="rotate(30 13.5016 25.7924)" fill="#AC271E"/>
<ellipse cx="2.32258" cy="9" rx="2.32258" ry="9" transform="matrix(-0.866025 0.5 0.5 0.866025 11.0107 1.24805)" fill="#AC271E"/>
<ellipse cx="2.32258" cy="9" rx="2.32258" ry="9" transform="matrix(-0.866025 0.5 0.5 0.866025 20.0098 16.8369)" fill="#AC271E"/>
<ellipse cx="2.32258" cy="9" rx="2.32258" ry="9" transform="matrix(-0.5 0.866025 0.866025 0.5 3.5752 6.99219)" fill="#AC271E"/>
<ellipse cx="2.32258" cy="9" rx="2.32258" ry="9" transform="matrix(-0.5 0.866025 0.866025 0.5 19.1641 15.9922)" fill="#AC271E"/>
<ellipse cx="25.7919" cy="13.5036" rx="2.32258" ry="9" transform="rotate(60 25.7919 13.5036)" fill="#AC271E"/>
<ellipse cx="10.203" cy="22.5036" rx="2.32258" ry="9" transform="rotate(60 10.203 22.5036)" fill="#AC271E"/>
<ellipse cx="27" cy="17.9984" rx="2.32258" ry="9" transform="rotate(90 27 17.9984)" fill="#AC271E"/>
<ellipse cx="9" cy="17.9984" rx="2.32258" ry="9" transform="rotate(90 9 17.9984)" fill="#AC271E"/>
</svg>
