<svg width="1400" height="261" viewBox="0 0 1400 261" fill="none" xmlns="http://www.w3.org/2000/svg">
<path d="M1101.87 0H1182.85C1182.85 0 1182.85 76.8016 1251.12 76.6208C1319.38 76.44 1319.02 0 1319.02 0H1400V254.555H1319.02V48.7807C1319.02 48.7807 1291.59 115.96 1251.12 131.696C1219.74 143.896 1182.85 109.303 1182.85 109.303V254.555H1101.87V0Z" fill="#AC271E"/>
<path d="M1044.27 0.362793C1054.68 0.362793 1062.43 2.39805 1067.52 6.46856C1072.6 10.5391 1075.15 15.895 1075.15 22.5363C1075.15 28.9634 1072.12 34.5336 1066.06 39.2468C1060.01 43.96 1055.16 46.3166 1051.53 46.3166C1047.9 46.3166 1045.96 44.8169 1045.72 41.8176C1045.23 36.6759 1041.36 31.8556 1034.09 27.3567C1027.07 22.8577 1019.8 20.6082 1012.3 20.6082C993.163 20.6082 973.666 28.6421 953.807 44.7098C933.947 60.7776 918.083 79.202 906.216 99.9829C894.348 120.764 888.414 138.331 888.414 152.685C888.414 167.039 891.805 178.822 898.586 188.034C905.61 197.032 915.782 201.531 929.103 201.531C950.416 201.531 973.545 184.928 998.491 151.721C1010.12 136.51 1021.86 114.23 1033.73 84.8793C1038.09 74.3816 1040.39 69.0257 1040.63 68.8115C1042.57 64.3125 1045.72 62.063 1050.08 62.063C1052.26 62.063 1053.95 62.7057 1055.16 63.9911C1056.62 65.0623 1057.34 66.4549 1057.34 68.1688C1057.34 69.6684 1056.98 71.3823 1056.25 73.3105C1049.23 96.0196 1045.72 117.765 1045.72 138.546C1045.72 159.112 1049.72 176.251 1057.71 189.962C1065.7 203.674 1076.36 210.529 1089.68 210.529C1096.46 210.529 1102.51 208.601 1107.84 204.745C1109.54 203.459 1111.23 202.817 1112.93 202.817C1115.83 202.817 1117.29 203.995 1117.29 206.352C1117.29 218.135 1109.42 229.168 1093.67 239.451C1077.93 249.52 1062.31 254.555 1046.81 254.555C1021.86 254.555 1009.39 239.344 1009.39 208.922C1009.39 196.711 1011.09 183 1014.48 167.789C1018.11 152.578 1019.93 144.758 1019.93 144.33C1019.93 143.687 1019.44 143.366 1018.47 143.366C1017.5 143.366 1016.41 144.33 1015.2 146.258C1001.4 176.68 982.507 202.281 958.529 223.062C934.552 243.629 912.513 253.912 892.411 253.912C872.309 253.912 857.898 247.057 849.179 233.345C843.124 224.133 840.097 212.779 840.097 199.282C840.097 172.716 850.269 143.902 870.613 112.837C891.2 81.5586 917.599 54.9932 949.81 33.1411C982.264 11.2889 1013.75 0.362793 1044.27 0.362793Z" fill="#AC271E"/>
<path d="M732.059 0C752.879 0 771.64 3.02609 788.344 9.07828C805.049 15.1305 819.332 23.7246 831.194 34.8606C843.298 45.9967 852.619 59.4325 859.155 75.1682C865.691 90.6618 868.96 107.971 868.96 127.096C868.96 146.221 865.691 163.651 859.155 179.387C852.619 194.881 843.177 208.316 830.831 219.695C818.484 230.831 803.717 239.425 786.529 245.477C769.583 251.529 750.579 254.555 729.517 254.555H620.578V0H732.059ZM734.238 195.365C742.953 195.365 750.7 193.791 757.478 190.644C764.499 187.255 770.551 182.655 775.635 176.845C780.961 170.793 784.955 163.651 787.618 155.42C790.523 147.189 791.976 137.99 791.976 127.822C791.976 117.655 790.523 108.455 787.618 100.224C784.713 91.7512 780.477 84.4886 774.909 78.4364C769.583 72.1421 763.167 67.4214 755.663 64.2743C748.158 61.1271 739.806 59.5536 730.607 59.5536H696.109V195.365H734.238Z" fill="#AC271E"/>
<path d="M455.668 0H533.378L638.323 254.555H557.708C557.708 254.555 566.767 76.3274 492.344 75.5314C417.625 74.7321 424.802 254.555 424.802 254.555H347.092L455.668 0Z" fill="#AC271E"/>
<path d="M87.5161 5.84663C87.5161 5.84663 163.353 5.20148 164.808 5.20148C166.262 5.20148 167.596 5.73911 168.808 6.81438C170.263 7.88964 170.99 9.28748 170.99 11.0079C170.99 12.5133 169.778 14.6638 167.353 17.4595C155.473 32.9432 143.957 53.9109 132.804 80.3623C121.652 106.814 116.075 129.717 116.075 149.072C116.075 168.211 114.899 178.71 127.701 188.223C135.024 193.664 141.032 195.925 150.094 194.878C158.268 193.933 162.02 189.847 168.808 185.197C183.272 175.287 187.492 165.111 197.902 151.003C214.987 127.851 207.273 96.0409 234.633 87.1327C242.39 84.6071 253.665 84.5559 255.363 84.5559C257.06 84.5559 258.514 85.0935 259.727 86.1687C261.181 87.244 261.909 88.2117 261.909 89.072C261.909 89.9322 261.181 94.2332 259.727 101.975C258.514 109.717 257.908 119.287 257.908 130.685C257.908 181.652 274.88 207.136 308.823 207.136C319.733 207.136 329.673 204.34 338.644 198.749C347.615 192.942 354.646 185.846 359.737 177.459C370.405 159.609 375.739 144.125 375.739 131.007C375.739 117.674 372.466 103.588 365.919 88.7494C359.616 73.9107 350.039 60.5775 337.189 48.7496C324.582 36.7067 310.762 30.4701 295.73 30.04C291.366 29.825 289.184 28.3196 289.184 25.5239C289.184 21.0078 293.548 15.7391 302.277 9.71759C311.005 3.48106 320.703 0.362793 331.371 0.362793C349.069 0.362793 364.586 8.42726 377.921 24.5562C391.498 40.4701 398.286 63.5882 398.286 93.9106C398.286 114.556 394.286 134.878 386.285 154.878C378.284 174.663 368.102 191.652 355.737 205.845C343.614 219.824 330.158 231.114 315.369 239.716C300.822 248.533 287.123 252.942 274.274 252.942C265.788 252.942 258.514 250.899 252.453 246.813C246.392 242.942 241.785 237.888 238.634 231.652C233.3 220.039 230.633 207.781 230.633 194.878C230.633 183.48 231.603 173.48 233.542 164.878C235.482 156.276 236.936 149.932 237.906 145.846C238.876 141.545 239.361 139.072 239.361 138.426C239.361 137.566 239.24 137.136 238.997 137.136C237.543 137.136 234.585 142.496 232.087 146.168C228.347 151.669 227.138 155.298 223.723 161.007C205.559 191.373 196.057 211.475 166.99 231.652C149.61 243.716 138.531 249.894 117.894 254.555C73.3494 264.615 22.8719 264.858 4.73676 225.068C-0.182046 214.276 0.168404 206.927 0.00899435 195.068C-0.524008 155.416 22.7418 114.307 40.6021 80.3623C56.6141 49.9305 87.5161 5.84663 87.5161 5.84663Z" fill="#AC271E"/>
<rect x="674.266" y="54.8325" width="70.2054" height="154.936" fill="#AC271E"/>
<rect x="403.076" y="139.2" width="180.355" height="48.4175" fill="#AC271E"/>
</svg>
