<svg width="1400" height="261" viewBox="0 0 1400 261" fill="none" xmlns="http://www.w3.org/2000/svg"><path d="M1101.87 0h80.98s0 76.802 68.27 76.62c68.26-.18 67.9-76.62 67.9-76.62H1400v254.555h-80.98V48.781s-27.43 67.179-67.9 82.915c-31.38 12.2-68.27-22.393-68.27-22.393v145.252h-80.98V0Z" fill="#E5E3D7"/><path d="M1044.27.363c10.41 0 18.16 2.036 23.25 6.106 5.08 4.07 7.63 9.426 7.63 16.068 0 6.427-3.03 11.997-9.09 16.71-6.05 4.714-10.9 7.07-14.53 7.07-3.63 0-5.57-1.5-5.81-4.499-.49-5.142-4.36-9.962-11.63-14.46-7.02-4.5-14.29-6.75-21.79-6.75-19.137 0-38.634 8.035-58.493 24.102-19.86 16.068-35.724 34.492-47.591 55.273-11.868 20.781-17.802 38.349-17.802 52.703 0 14.354 3.391 26.137 10.172 35.349 7.024 8.998 17.196 13.497 30.517 13.497 21.313 0 44.442-16.604 69.388-49.81 11.629-15.211 23.369-37.492 35.239-66.842 4.36-10.498 6.66-15.854 6.9-16.068 1.94-4.499 5.09-6.748 9.45-6.748 2.18 0 3.87.642 5.08 1.928 1.46 1.07 2.18 2.463 2.18 4.177 0 1.5-.36 3.214-1.09 5.142-7.02 22.709-10.53 44.454-10.53 65.235 0 20.567 4 37.706 11.99 51.417 7.99 13.711 18.65 20.567 31.97 20.567 6.78 0 12.83-1.928 18.16-5.785 1.7-1.285 3.39-1.928 5.09-1.928 2.9 0 4.36 1.178 4.36 3.535 0 11.783-7.87 22.816-23.62 33.1-15.74 10.069-31.36 15.103-46.86 15.103-24.95 0-37.42-15.21-37.42-45.632 0-12.212 1.7-25.923 5.09-41.134 3.63-15.21 5.45-23.03 5.45-23.459 0-.642-.49-.964-1.46-.964s-2.06.964-3.27 2.893c-13.8 30.421-32.693 56.023-56.671 76.803-23.977 20.567-46.016 30.851-66.118 30.851-20.103 0-34.513-6.856-43.232-20.567-6.055-9.212-9.082-20.567-9.082-34.064 0-26.565 10.172-55.38 30.516-86.444 20.587-31.279 46.986-57.844 79.197-79.696C982.264 11.289 1013.75.363 1044.27.363Z" fill="#E5E3D7"/><path d="M732.059 0c20.82 0 39.581 3.026 56.286 9.078 16.704 6.053 30.987 14.647 42.849 25.783 12.104 11.136 21.425 24.572 27.961 40.307 6.537 15.494 9.805 32.803 9.805 51.928s-3.268 36.555-9.805 52.291c-6.536 15.494-15.978 28.929-28.324 40.308-12.347 11.136-27.114 19.73-44.302 25.782-16.946 6.052-35.95 9.078-57.012 9.078H620.578V0h111.481Zm2.179 195.365c8.715 0 16.462-1.574 23.24-4.721 7.021-3.389 13.073-7.989 18.157-13.799 5.326-6.052 9.32-13.194 11.983-21.425 2.905-8.231 4.358-17.43 4.358-27.598 0-10.167-1.453-19.367-4.358-27.598-2.905-8.473-7.141-15.735-12.709-21.788-5.326-6.294-11.742-11.015-19.246-14.162-7.505-3.147-15.857-4.72-25.056-4.72h-34.498v135.811h38.129Z" fill="#E5E3D7"/><path d="M455.668 0h77.71l104.945 254.555h-80.615s9.059-178.228-65.364-179.024c-74.719-.799-67.542 179.024-67.542 179.024h-77.71L455.668 0ZM87.516 5.847s75.837-.645 77.292-.645c1.454 0 2.788.538 4 1.613 1.455 1.075 2.182 2.473 2.182 4.193 0 1.506-1.212 3.656-3.637 6.452-11.88 15.484-23.396 36.451-34.549 62.903-11.152 26.451-16.729 49.354-16.729 68.709 0 19.14-1.176 29.639 11.626 39.151 7.323 5.441 13.331 7.703 22.393 6.655 8.174-.944 11.926-5.03 18.714-9.681 14.464-9.91 18.684-20.086 29.094-34.193 17.085-23.153 9.371-54.963 36.731-63.87 7.757-2.526 19.032-2.578 20.73-2.578 1.697 0 3.151.538 4.364 1.613 1.454 1.076 2.182 2.043 2.182 2.903 0 .86-.728 5.162-2.182 12.904-1.213 7.741-1.819 17.311-1.819 28.709 0 50.968 16.972 76.451 50.915 76.451 10.91 0 20.85-2.795 29.821-8.387 8.971-5.806 16.002-12.903 21.093-21.29 10.668-17.849 16.002-33.333 16.002-46.451 0-13.334-3.273-27.42-9.819-42.258-6.304-14.839-15.881-28.172-28.731-40-12.607-12.043-26.427-18.28-41.459-18.71-4.364-.214-6.546-1.72-6.546-4.516 0-4.516 4.364-9.785 13.093-15.806 8.728-6.236 18.426-9.355 29.094-9.355 17.698 0 33.215 8.065 46.55 24.194 13.577 15.914 20.365 39.032 20.365 69.354 0 20.645-4 40.968-12.001 60.968-8.001 19.784-18.183 36.773-30.548 50.967-12.123 13.978-25.579 25.269-40.368 33.871-14.547 8.817-28.245 13.225-41.095 13.225-8.486 0-15.76-2.043-21.821-6.129-6.061-3.87-10.668-8.924-13.819-15.161-5.334-11.613-8.001-23.871-8.001-36.774 0-11.398.97-21.397 2.909-30 1.94-8.602 3.394-14.946 4.364-19.032.97-4.301 1.455-6.774 1.455-7.419 0-.86-.121-1.29-.364-1.29-1.454 0-4.412 5.359-6.91 9.032-3.74 5.501-4.949 9.13-8.364 14.838-18.164 30.366-27.666 50.468-56.733 70.645-17.38 12.065-28.459 18.242-49.096 22.903-44.545 10.061-95.022 10.303-113.157-29.486-4.919-10.793-4.569-18.141-4.728-30-.533-39.653 22.733-80.762 40.593-114.706C56.614 49.93 87.516 5.847 87.516 5.847Zm586.75 48.986h70.205v154.936h-70.205z" fill="#E5E3D7"/><path fill="#E5E3D7" d="M403.076 139.2h180.355v48.417H403.076z"/></svg>